<?xml version="1.0" standalone="no"?>
<!DOCTYPE svg PUBLIC "-//W3C//DTD SVG 20010904//EN"
 "http://www.w3.org/TR/2001/REC-SVG-20010904/DTD/svg10.dtd">
<svg version="1.0" xmlns="http://www.w3.org/2000/svg"
 width="277.000000pt" height="277.000000pt" viewBox="0 0 277.000000 277.000000"
 preserveAspectRatio="xMidYMid meet">
<metadata>
Created by potrace 1.11, written by Peter Selinger 2001-2013
</metadata>
<g transform="translate(0.000000,277.000000) scale(0.100000,-0.100000)"
fill="#000000" stroke="none">
<path d="M1223 2764 c4 -7 -1 -15 -10 -18 -9 -4 -20 -1 -24 6 -6 9 -11 9 -23
-1 -8 -7 -20 -10 -26 -6 -5 3 -10 1 -10 -5 0 -7 -7 -10 -15 -6 -8 3 -15 1 -15
-5 0 -6 -4 -7 -10 -4 -5 3 -10 0 -10 -7 0 -9 -3 -9 -10 2 -7 11 -10 11 -10 2
0 -7 -4 -11 -9 -7 -5 3 -17 -2 -25 -11 -11 -10 -16 -11 -16 -3 0 7 -8 5 -22
-7 -13 -12 -18 -13 -13 -4 7 12 6 13 -7 3 -8 -7 -18 -10 -21 -6 -4 3 -7 2 -7
-4 0 -6 -7 -14 -16 -17 -10 -4 -13 -2 -8 7 4 6 -5 1 -19 -12 -19 -17 -27 -20
-27 -10 -1 10 -4 9 -15 -5 -7 -10 -18 -15 -24 -12 -5 3 -16 -1 -24 -9 -9 -8
-20 -15 -26 -15 -6 0 -11 -5 -11 -10 0 -6 -3 -9 -7 -9 -21 3 -33 -2 -27 -12 4
-7 1 -10 -7 -7 -7 2 -22 -4 -33 -14 -11 -10 -26 -18 -33 -18 -7 0 -13 -5 -13
-11 0 -5 -4 -8 -9 -5 -5 3 -12 -1 -15 -9 -3 -8 -11 -14 -18 -13 -7 2 -12 -3
-10 -9 2 -12 -19 -18 -43 -13 -5 1 -7 -2 -3 -6 10 -10 -29 -37 -42 -29 -5 3
-7 0 -5 -8 3 -7 -5 -19 -19 -27 -14 -7 -22 -18 -19 -23 4 -6 0 -8 -11 -4 -9 4
-15 3 -12 -2 7 -10 -18 -33 -27 -26 -4 3 -5 2 -2 -1 6 -9 -51 -74 -84 -96 -16
-11 -20 -18 -11 -18 12 -1 12 -3 -2 -14 -10 -7 -18 -19 -18 -25 0 -7 -5 -9
-12 -5 -8 5 -9 2 -5 -9 4 -10 2 -16 -5 -14 -7 1 -12 -4 -13 -11 0 -7 -5 -16
-12 -20 -13 -8 -63 -104 -63 -121 0 -6 -5 -11 -11 -11 -7 0 -9 -9 -6 -21 3
-12 3 -19 0 -16 -7 8 -32 -16 -26 -26 3 -4 -1 -14 -7 -22 -6 -8 -9 -18 -6 -24
3 -5 -1 -12 -10 -15 -8 -3 -12 -10 -9 -16 3 -5 3 -16 -2 -22 -8 -13 -13 -33
-15 -55 -1 -7 -6 -13 -11 -13 -6 0 -7 -3 -4 -7 4 -3 1 -13 -6 -21 -10 -13 -9
-14 1 -8 10 6 10 2 0 -21 -7 -15 -17 -31 -23 -35 -6 -5 -5 -8 4 -8 8 0 11 -6
6 -17 -4 -10 -8 -23 -9 -30 -1 -7 -5 -15 -9 -19 -3 -4 -2 -15 3 -25 7 -12 6
-20 -2 -25 -7 -5 -8 -3 -3 7 5 8 4 10 0 6 -14 -12 -15 -38 -2 -30 7 4 6 -1 -1
-10 -16 -19 -25 -249 -13 -295 4 -15 4 -39 0 -54 -6 -23 -4 -28 9 -28 14 0 15
-2 3 -9 -13 -8 -13 -12 0 -27 12 -16 12 -17 -1 -9 -13 8 -13 6 -1 -8 7 -9 11
-24 7 -32 -3 -8 0 -15 7 -15 8 0 6 -4 -3 -10 -8 -5 -10 -10 -3 -10 6 0 9 -9 6
-20 -3 -12 0 -20 6 -20 7 0 9 5 5 12 -5 7 -3 8 5 3 8 -4 9 -11 3 -17 -11 -11
-3 -58 10 -58 6 0 8 -9 5 -20 -3 -11 -1 -20 5 -20 5 0 6 -4 3 -10 -3 -5 -1
-10 6 -10 6 0 9 -8 6 -20 -3 -13 0 -20 9 -20 8 0 14 -5 14 -11 0 -5 -4 -8 -9
-5 -5 4 -4 -5 2 -19 7 -14 16 -25 20 -25 5 0 5 -4 2 -10 -3 -5 -1 -10 5 -10 6
0 8 -5 5 -10 -3 -6 -1 -10 5 -10 6 0 8 -4 5 -10 -3 -5 -1 -10 5 -10 6 0 8 -4
5 -10 -3 -5 -1 -10 5 -10 6 0 8 -4 5 -10 -3 -5 1 -10 9 -10 11 0 16 -10 16
-31 0 -26 2 -30 15 -19 12 10 14 8 10 -9 -2 -13 3 -22 16 -26 10 -4 19 -15 19
-26 0 -11 4 -17 10 -14 5 3 10 -1 10 -9 0 -8 8 -20 18 -25 9 -6 13 -11 8 -11
-6 0 4 -11 22 -23 17 -13 28 -28 24 -32 -4 -5 2 -5 12 -1 16 6 17 4 6 -9 -7
-9 -9 -15 -4 -14 19 3 34 -1 34 -11 0 -16 49 -59 54 -47 2 7 5 4 5 -5 1 -9 10
-20 21 -23 11 -3 20 -13 20 -21 0 -8 4 -13 9 -10 5 3 15 -2 22 -11 12 -14 12
-16 0 -8 -10 5 -12 4 -7 -4 4 -6 11 -9 16 -6 13 8 41 -6 33 -18 -4 -7 0 -8 13
-3 10 4 15 4 12 0 -9 -8 14 -34 25 -27 4 2 10 -2 13 -11 3 -9 12 -12 21 -9 11
4 14 2 9 -5 -6 -11 5 -17 27 -13 4 0 7 -4 7 -10 0 -5 5 -7 10 -4 6 3 10 1 10
-5 0 -6 4 -8 10 -5 5 3 10 1 10 -5 0 -6 4 -8 10 -5 5 3 10 2 10 -4 0 -10 38
-27 53 -23 4 1 7 -2 7 -8 0 -5 9 -10 20 -10 11 0 20 -5 20 -11 0 -5 4 -8 9 -4
5 3 12 1 16 -5 4 -6 11 -8 16 -5 5 4 9 2 9 -3 0 -11 99 -44 111 -36 5 3 12 -2
15 -11 6 -13 8 -14 15 -3 7 10 9 11 9 0 0 -7 4 -10 10 -7 5 3 10 0 10 -7 0 -9
3 -9 10 2 5 8 10 10 10 3 0 -6 15 -11 33 -11 42 0 60 -5 69 -17 5 -6 8 -4 8 5
0 13 1 13 10 0 9 -13 10 -13 10 0 0 13 1 13 10 0 9 -13 11 -13 20 0 6 10 10
11 10 3 0 -10 31 -13 121 -13 88 0 118 3 113 12 -5 7 -3 8 7 2 19 -12 62 -17
56 -7 -3 5 4 10 16 10 17 2 19 0 7 -7 -9 -6 -10 -10 -3 -10 6 0 14 4 17 9 9
14 54 19 67 7 9 -8 10 -8 5 2 -7 12 3 15 47 15 9 0 17 4 17 9 0 5 4 7 9 3 5
-3 13 -1 16 5 5 8 12 7 23 -2 13 -11 15 -11 10 3 -4 9 -1 16 8 16 7 0 11 -5 8
-11 -3 -6 2 -2 10 8 12 15 16 16 16 5 0 -10 2 -11 8 -2 4 7 19 14 32 17 14 2
24 9 22 15 -2 9 3 9 19 0 15 -8 19 -8 15 0 -5 7 1 11 14 11 12 0 19 4 15 9 -3
6 4 8 15 6 11 -2 20 0 20 5 0 5 10 12 23 16 12 3 30 13 39 22 10 8 18 11 18 6
0 -5 7 0 15 10 8 11 18 17 21 13 4 -4 18 6 32 21 13 15 21 20 17 12 -5 -8 2
-5 14 8 12 12 27 19 33 16 7 -4 8 -2 4 4 -4 7 -1 12 9 12 9 0 13 5 10 10 -3 6
-1 10 5 10 10 0 170 157 170 167 0 7 61 86 77 100 8 6 14 14 15 17 0 19 12 46
19 46 5 0 8 5 7 12 -2 7 2 12 9 13 16 0 29 15 13 15 -8 0 -3 8 10 20 13 11 17
20 10 20 -9 0 -8 6 5 20 10 11 15 23 12 26 -4 4 2 19 12 33 10 14 19 28 19 31
0 3 5 18 11 33 6 16 11 34 11 42 0 8 4 16 9 19 8 6 36 120 34 144 0 6 4 12 9
12 6 0 8 9 5 20 -3 11 -2 20 2 20 4 0 7 8 8 18 0 9 4 28 7 41 3 14 0 31 -6 38
-8 10 -8 12 3 8 10 -4 15 5 16 30 1 25 -2 33 -10 28 -9 -5 -9 -3 -2 8 6 8 12
26 14 42 2 20 -2 27 -16 28 -15 0 -15 2 -3 7 16 7 20 25 8 38 -4 4 -3 13 3 21
9 10 8 13 -2 13 -10 0 -10 3 -1 12 16 16 15 31 0 22 -9 -5 -9 -2 1 9 8 11 9
17 3 17 -8 0 -8 8 -3 22 4 13 5 35 1 50 -5 14 -6 29 -2 32 3 3 0 6 -8 6 -9 0
-10 3 -1 14 9 11 8 18 -4 30 -11 11 -12 16 -4 16 7 0 5 8 -6 20 -18 20 -18 21
1 15 18 -6 18 -6 2 8 -13 10 -15 16 -6 25 9 9 9 12 1 12 -6 0 -10 11 -8 25 1
14 -3 25 -9 25 -7 0 -13 10 -13 22 -1 13 -7 24 -13 26 -5 2 -10 10 -10 17 0
19 -38 39 -77 41 -17 1 -39 4 -48 8 -9 3 -13 2 -10 -4 4 -6 -4 -14 -17 -19
-13 -6 -19 -10 -14 -10 5 -1 3 -8 -4 -16 -6 -8 -9 -19 -5 -25 3 -5 1 -10 -5
-10 -6 0 -8 -4 -5 -10 3 -5 0 -10 -7 -10 -9 0 -9 -3 2 -10 13 -8 8 -14 -10
-12 -4 0 -7 -10 -8 -24 -4 -51 -5 -54 -17 -44 -9 8 -12 4 -10 -15 2 -14 -1
-25 -6 -25 -5 0 -11 -11 -15 -25 -3 -14 -10 -22 -16 -19 -5 3 -8 0 -7 -7 3
-20 -12 -50 -22 -43 -5 3 -7 -1 -4 -8 3 -7 -5 -25 -17 -39 -13 -15 -34 -41
-48 -60 -37 -49 -60 -70 -69 -64 -5 2 -8 -3 -7 -13 0 -9 -5 -16 -11 -14 -7 1
-13 -6 -14 -15 0 -11 -3 -13 -6 -5 -3 8 -11 5 -25 -10 -11 -13 -16 -17 -12 -9
5 9 3 12 -4 7 -7 -4 -12 -13 -12 -20 0 -16 -221 -126 -320 -159 -92 -31 -151
-47 -193 -52 -69 -9 -113 -16 -129 -21 -11 -3 -18 0 -18 8 0 10 -2 10 -9 -1
-5 -7 -14 -10 -20 -7 -6 4 -11 3 -11 -3 0 -5 -8 -8 -17 -6 -10 2 -21 4 -25 4
-5 1 -8 6 -8 12 0 8 5 7 15 -1 13 -11 14 -10 10 3 -7 18 21 77 36 77 6 0 8 4
5 8 -3 5 8 25 24 44 16 19 26 38 23 42 -3 3 0 6 8 6 9 0 21 16 29 35 7 19 16
33 19 31 3 -2 12 2 19 10 7 8 10 14 6 14 -4 0 10 16 30 35 21 19 35 39 31 44
-7 12 35 42 48 34 6 -3 7 -1 4 4 -4 6 18 36 48 67 31 31 53 61 50 67 -4 5 -3
8 2 7 13 -4 53 26 53 40 0 7 5 10 10 7 6 -3 10 1 10 10 0 9 3 14 8 12 9 -5 62
50 54 57 -3 3 0 6 7 6 7 0 9 5 5 12 -4 7 -3 8 5 4 7 -4 26 7 46 27 19 19 37
32 39 29 3 -3 9 3 12 13 4 10 24 34 46 54 21 20 38 41 38 48 0 7 9 17 21 23
12 7 18 18 15 26 -3 9 -1 12 4 9 6 -3 14 5 20 19 5 14 14 26 20 26 6 0 8 5 5
10 -3 6 -1 10 5 10 7 0 10 7 6 15 -3 8 -1 15 5 15 6 0 7 5 4 10 -3 6 -2 10 4
10 6 0 7 7 4 17 -5 12 -3 14 7 8 10 -6 12 -4 7 7 -3 9 -3 19 1 22 6 7 11 25
16 61 2 11 -2 26 -8 34 -8 11 -8 13 0 8 7 -4 14 0 18 8 3 8 1 15 -4 15 -6 0
-6 9 0 25 6 16 6 25 0 25 -6 0 -10 8 -10 18 0 26 -48 122 -61 122 -5 0 -8 4
-4 9 3 5 -4 13 -16 16 -13 4 -18 12 -15 21 3 8 2 13 -2 10 -5 -3 -22 7 -39 22
-58 51 -73 62 -89 62 -10 0 -14 6 -11 14 4 10 0 12 -14 9 -10 -3 -19 0 -19 6
0 6 -9 11 -20 11 -11 0 -20 5 -20 10 0 6 -8 10 -18 10 -10 0 -23 5 -30 12 -7
7 -12 8 -12 3 0 -6 -5 -3 -10 5 -8 12 -12 13 -19 2 -7 -11 -9 -11 -14 2 -4 9
-14 13 -27 11 -12 -2 -23 2 -27 11 -4 11 -9 12 -19 3 -12 -10 -18 -6 -16 12 1
8 -31 5 -46 -5 -8 -4 -12 -1 -13 11 0 11 -3 13 -6 5 -2 -6 -9 -9 -15 -6 -6 4
-24 7 -40 6 -15 0 -26 4 -23 9 4 5 1 9 -4 9 -6 0 -11 -5 -11 -11 0 -5 -5 -7
-12 -3 -16 10 -60 15 -54 6 2 -4 -8 -7 -22 -6 -15 1 -27 3 -27 4 0 1 -35 3
-78 4 -42 0 -77 -3 -77 -7 0 -5 -5 -5 -11 -2 -17 11 -59 13 -59 2 0 -5 -8 -3
-17 4 -9 8 -14 9 -10 3z"/>
</g>
</svg>
